<?xml version="1.0" standalone="no"?>
<!DOCTYPE svg PUBLIC "-//W3C//DTD SVG 20010904//EN"
 "http://www.w3.org/TR/2001/REC-SVG-20010904/DTD/svg10.dtd">
<svg version="1.0" xmlns="http://www.w3.org/2000/svg"
 width="676.000000pt" height="676.000000pt" viewBox="0 0 676.000000 676.000000"
 preserveAspectRatio="xMidYMid meet">

<g transform="translate(0.000000,676.000000) scale(0.100000,-0.100000)"
fill="#cccccc" stroke="none">
<path d="M1755 5980 c-117 -24 -294 -69 -315 -80 -9 -5 -52 -80 -95 -167 -43
-87 -97 -187 -120 -223 -23 -36 -64 -105 -91 -155 l-49 -90 -5 -668 -5 -669
-70 -37 c-39 -21 -158 -94 -265 -161 -107 -68 -232 -145 -277 -171 -106 -62
-133 -80 -133 -88 1 -7 84 -64 225 -151 232 -145 433 -268 477 -294 l47 -26 3
-663 3 -662 36 -70 c20 -38 61 -110 91 -160 30 -49 87 -155 127 -235 40 -80
80 -152 87 -160 8 -8 49 -24 92 -36 42 -11 118 -33 167 -48 50 -15 123 -32
164 -38 72 -12 74 -11 93 12 10 13 18 30 16 39 -3 17 -110 73 -223 117 -93 36
-156 68 -178 91 -25 25 -148 243 -221 393 l-61 125 -5 689 c-4 599 -7 690 -20
697 -8 4 -183 90 -388 190 -294 145 -370 185 -360 195 12 11 597 297 716 350
l52 23 0 683 0 683 67 140 c36 77 83 165 102 195 20 30 47 80 61 110 13 30 31
63 39 73 15 18 249 135 354 177 55 21 58 24 55 54 -3 30 -5 31 -53 33 -27 1
-90 -7 -140 -17z"/>
<path d="M4777 5993 c-4 -3 -7 -18 -7 -33 0 -23 8 -30 58 -50 145 -60 323
-153 351 -182 32 -34 151 -252 192 -348 12 -30 36 -75 53 -100 l31 -45 5 -694
5 -695 382 -185 c211 -102 383 -188 383 -192 0 -3 -172 -90 -382 -195 l-383
-189 -5 -690 -5 -690 -27 -40 c-16 -22 -28 -43 -28 -48 0 -14 -145 -297 -187
-367 -48 -77 -66 -92 -163 -128 -145 -55 -290 -126 -290 -142 0 -22 37 -60 59
-60 34 0 203 40 297 70 52 16 102 30 112 30 44 0 79 38 127 136 26 55 62 124
81 154 43 72 92 162 151 280 l48 95 6 385 c4 212 4 489 2 615 -2 127 -1 250 4
274 8 40 13 47 73 84 36 21 101 61 145 88 233 142 519 326 522 336 2 6 -13 21
-34 34 -21 12 -166 102 -323 199 -157 98 -306 189 -332 204 -25 15 -49 34 -53
44 -3 9 -5 303 -4 654 l2 637 -37 77 c-20 43 -52 103 -70 133 -53 87 -101 175
-173 316 -36 72 -70 133 -75 136 -13 8 -250 65 -353 84 -85 16 -147 19 -158 8z"/>
<path d="M2235 5972 c-53 -45 -80 -121 -106 -297 -21 -145 -24 -314 -8 -432
19 -140 77 -341 127 -448 54 -111 162 -288 199 -322 28 -27 28 -34 3 -109 -12
-32 -37 -120 -56 -194 -20 -74 -45 -157 -56 -185 -55 -139 -58 -175 -22 -260
57 -133 74 -180 74 -200 0 -12 -23 -62 -51 -111 -50 -88 -50 -90 -46 -159 3
-38 19 -124 36 -190 17 -66 46 -196 66 -290 19 -93 44 -200 55 -237 11 -37 22
-91 24 -118 2 -28 5 -52 7 -53 2 -2 24 -16 49 -32 25 -15 73 -53 107 -83 58
-51 63 -59 91 -146 27 -85 63 -232 77 -318 5 -30 20 -50 80 -105 88 -82 120
-142 196 -372 28 -86 62 -184 76 -219 25 -60 28 -63 109 -107 45 -25 91 -45
102 -45 11 0 53 20 95 45 84 51 87 56 140 211 74 214 127 356 148 393 12 21
52 65 89 96 l68 58 25 106 c14 58 33 149 42 201 9 52 18 102 21 111 5 17 191
178 223 193 14 6 20 22 24 55 4 48 42 207 83 346 19 64 90 397 111 515 3 16
-15 67 -47 139 -28 63 -49 121 -47 130 3 9 24 68 47 131 24 63 43 129 43 145
0 31 -58 230 -137 470 -25 77 -46 145 -46 153 0 7 11 23 23 35 37 34 145 211
199 322 50 107 108 308 127 448 31 220 -11 582 -78 686 -20 32 -52 60 -68 61
-19 0 -16 -14 7 -35 48 -44 51 -144 9 -327 -43 -187 -54 -225 -116 -380 -58
-145 -126 -272 -202 -377 -118 -162 -133 -181 -151 -181 -11 0 -139 36 -285
80 -245 74 -273 80 -353 80 -97 0 -96 0 -405 -94 -120 -36 -227 -66 -237 -66
-12 0 -37 26 -67 66 -26 37 -67 92 -89 123 -70 95 -140 227 -197 369 -62 155
-73 193 -116 380 -42 183 -39 283 9 327 37 34 13 50 -25 17z m601 -2383 c222
-102 265 -129 283 -180 12 -34 4 -36 -41 -13 -28 15 -35 15 -84 -1 -45 -14
-62 -15 -109 -5 -128 27 -213 91 -266 203 -32 67 -36 97 -16 97 8 0 112 -45
233 -101z m1234 87 c0 -34 -46 -130 -82 -171 -44 -50 -134 -99 -213 -115 -43
-9 -63 -8 -105 4 -44 13 -56 13 -90 1 -38 -13 -40 -13 -40 6 0 46 61 86 280
188 118 55 223 100 233 100 9 1 17 -5 17 -13z m-1282 -636 c12 -18 22 -48 22
-67 0 -18 7 -50 15 -70 18 -42 19 -57 5 -48 -12 8 -130 241 -130 257 0 16 62
-35 88 -72z m1136 58 c-14 -46 -117 -243 -121 -231 -8 22 25 155 43 176 66 79
92 97 78 55z m-1053 -124 c7 -9 33 -29 57 -46 39 -27 43 -34 38 -60 -8 -40
-56 -120 -70 -115 -6 2 -14 17 -18 33 -26 103 -48 194 -48 199 0 11 28 4 41
-11z m924 -1 c-7 -19 -17 -67 -36 -165 -6 -32 -14 -60 -19 -63 -9 -5 -45 54
-70 114 -13 32 -12 35 9 50 13 9 39 31 59 48 41 36 68 43 57 16z m-745 -123
c38 -27 154 -70 189 -70 15 0 30 -3 34 -6 3 -3 -9 -36 -27 -72 -19 -37 -48
-104 -66 -150 -40 -100 -47 -98 -84 29 -14 47 -41 131 -60 187 -19 56 -30 102
-25 102 6 0 24 -9 39 -20z m580 12 c0 -5 -11 -35 -24 -68 -13 -32 -39 -113
-57 -179 -41 -150 -49 -162 -77 -103 -11 23 -42 88 -68 143 -27 55 -49 104
-49 109 0 5 29 15 63 22 35 7 94 29 130 48 72 37 82 40 82 28z m-590 -191 c28
-84 48 -156 45 -160 -9 -7 -82 75 -132 147 l-37 52 18 38 c23 48 47 85 52 80
2 -2 26 -73 54 -157z m644 105 c14 -30 26 -59 26 -64 0 -12 -112 -162 -140
-187 -19 -18 -20 -18 -20 4 0 29 92 301 101 301 4 0 19 -24 33 -54z m-290
-162 c42 -86 74 -160 71 -164 -19 -31 -179 -50 -245 -29 -52 17 -62 34 -40 72
15 27 76 167 111 255 5 12 13 22 18 22 5 0 43 -70 85 -156z"/>
</g>
</svg>
